<mxfile host="app.diagrams.net" agent="Mozilla/5.0 (Windows NT 10.0; Win64; x64) AppleWebKit/537.36 (KHTML, like Gecko) Chrome/131.0.0.0 Safari/537.36" version="24.8.6">
  <diagram name="PÃ¡gina-1" id="jQPiK23yYhPIS9YhWkp4">
    <mxGraphModel dx="2607" dy="1356" grid="1" gridSize="10" guides="1" tooltips="1" connect="1" arrows="1" fold="1" page="1" pageScale="1" pageWidth="827" pageHeight="1169" math="0" shadow="0">
      <root>
        <mxCell id="0" />
        <mxCell id="1" parent="0" />
        <mxCell id="Nuf9PjGlq5Z_Ufr8rAmU-1" value="Microcontroler Unit" style="rounded=1;whiteSpace=wrap;html=1;fontStyle=1;fontSize=28;" vertex="1" parent="1">
          <mxGeometry x="80" y="338.08383233532936" width="210.77759999999998" height="210.77844311377245" as="geometry" />
        </mxCell>
        <mxCell id="Nuf9PjGlq5Z_Ufr8rAmU-34" value="&lt;b style=&quot;font-size: 20px;&quot;&gt;FT&lt;/b&gt; and &lt;b style=&quot;font-size: 20px;&quot;&gt;ST&lt;/b&gt; DS18B20 buses" style="text;html=1;align=center;verticalAlign=middle;whiteSpace=wrap;rounded=0;fontSize=20;" vertex="1" parent="1">
          <mxGeometry x="405.98" y="338.08" width="316.17" height="38.08" as="geometry" />
        </mxCell>
        <mxCell id="Nuf9PjGlq5Z_Ufr8rAmU-33" value="" style="rounded=1;whiteSpace=wrap;html=1;fillColor=none;dashed=1;dashPattern=1 1;rotation=90;strokeWidth=2;" vertex="1" parent="1">
          <mxGeometry x="461.61" y="313.11" width="204.91" height="326.35" as="geometry" />
        </mxCell>
        <mxCell id="Nuf9PjGlq5Z_Ufr8rAmU-7" value="&lt;p style=&quot;line-height: 50%; font-size: 15px;&quot;&gt;&lt;span style=&quot;background-color: initial; font-size: 15px;&quot;&gt;ST1&lt;/span&gt;&lt;/p&gt;" style="rounded=1;whiteSpace=wrap;html=1;fontSize=15;rotation=0;fontStyle=1" vertex="1" parent="1">
          <mxGeometry x="659.6383999999999" y="514.6107784431138" width="52.694399999999995" height="52.69461077844311" as="geometry" />
        </mxCell>
        <mxCell id="Nuf9PjGlq5Z_Ufr8rAmU-8" value="&lt;p style=&quot;line-height: 50%; font-size: 15px;&quot;&gt;&lt;font style=&quot;font-size: 15px;&quot;&gt;ST2&lt;/font&gt;&lt;/p&gt;" style="rounded=1;whiteSpace=wrap;html=1;fontSize=15;rotation=0;fontStyle=1" vertex="1" parent="1">
          <mxGeometry x="580.5967999999999" y="514.6107784431138" width="52.694399999999995" height="52.69461077844311" as="geometry" />
        </mxCell>
        <mxCell id="Nuf9PjGlq5Z_Ufr8rAmU-9" value="&lt;p style=&quot;line-height: 50%; font-size: 15px;&quot;&gt;&lt;font style=&quot;font-size: 15px;&quot;&gt;ST3&lt;/font&gt;&lt;/p&gt;" style="rounded=1;whiteSpace=wrap;html=1;fontSize=15;rotation=0;fontStyle=1" vertex="1" parent="1">
          <mxGeometry x="501.55519999999996" y="514.6107784431138" width="52.694399999999995" height="52.69461077844311" as="geometry" />
        </mxCell>
        <mxCell id="Nuf9PjGlq5Z_Ufr8rAmU-10" value="&lt;p style=&quot;line-height: 50%; font-size: 15px;&quot;&gt;&lt;font style=&quot;font-size: 15px;&quot;&gt;ST4&lt;/font&gt;&lt;/p&gt;" style="rounded=1;whiteSpace=wrap;html=1;fontSize=15;rotation=0;fontStyle=1" vertex="1" parent="1">
          <mxGeometry x="422.5136" y="514.6107784431138" width="52.694399999999995" height="52.69461077844311" as="geometry" />
        </mxCell>
        <mxCell id="Nuf9PjGlq5Z_Ufr8rAmU-16" value="" style="endArrow=none;html=1;rounded=0;entryX=1;entryY=0.5;entryDx=0;entryDy=0;exitX=0.35;exitY=0.002;exitDx=0;exitDy=0;exitPerimeter=0;strokeWidth=2;" edge="1" parent="1">
          <mxGeometry width="50" height="50" relative="1" as="geometry">
            <mxPoint x="290.7776" y="493.53293413173657" as="sourcePoint" />
            <mxPoint x="685.9856" y="514.6107784431138" as="targetPoint" />
            <Array as="points">
              <mxPoint x="685.9856" y="493.53293413173657" />
            </Array>
          </mxGeometry>
        </mxCell>
        <mxCell id="Nuf9PjGlq5Z_Ufr8rAmU-17" value="" style="line;strokeWidth=2;html=1;flipV=0;flipH=1;rotation=90;" vertex="1" parent="1">
          <mxGeometry x="596.4051199999999" y="500" width="21.077759999999998" height="7.904191616766468" as="geometry" />
        </mxCell>
        <mxCell id="Nuf9PjGlq5Z_Ufr8rAmU-18" value="" style="line;strokeWidth=2;html=1;flipV=0;flipH=1;rotation=90;" vertex="1" parent="1">
          <mxGeometry x="517.3635199999999" y="500" width="21.077759999999998" height="7.904191616766468" as="geometry" />
        </mxCell>
        <mxCell id="Nuf9PjGlq5Z_Ufr8rAmU-19" value="" style="line;strokeWidth=2;html=1;flipV=0;flipH=1;rotation=90;" vertex="1" parent="1">
          <mxGeometry x="438.3219199999999" y="500" width="21.077759999999998" height="7.904191616766468" as="geometry" />
        </mxCell>
        <mxCell id="Nuf9PjGlq5Z_Ufr8rAmU-36" value="" style="endArrow=classic;html=1;rounded=0;exitX=0.86;exitY=0.503;exitDx=0;exitDy=0;exitPerimeter=0;entryX=1;entryY=0.5;entryDx=0;entryDy=0;entryPerimeter=0;" edge="1" parent="1">
          <mxGeometry width="50" height="50" relative="1" as="geometry">
            <mxPoint x="346.10671999999994" y="493.53293413173657" as="sourcePoint" />
            <mxPoint x="290.7776" y="493.53293413173657" as="targetPoint" />
          </mxGeometry>
        </mxCell>
        <mxCell id="Nuf9PjGlq5Z_Ufr8rAmU-2" value="&lt;p style=&quot;line-height: 50%; font-size: 15px;&quot;&gt;&lt;font style=&quot;font-size: 15px;&quot;&gt;FT1&lt;/font&gt;&lt;/p&gt;" style="rounded=1;whiteSpace=wrap;html=1;fontSize=15;flipV=0;flipH=0;rotation=0;direction=east;fontStyle=1" vertex="1" parent="1">
          <mxGeometry x="659.6383999999999" y="417.12574850299404" width="52.694399999999995" height="52.69461077844311" as="geometry" />
        </mxCell>
        <mxCell id="Nuf9PjGlq5Z_Ufr8rAmU-3" value="&lt;p style=&quot;line-height: 50%; font-size: 15px;&quot;&gt;&lt;font style=&quot;font-size: 15px;&quot;&gt;FT2&lt;/font&gt;&lt;/p&gt;" style="rounded=1;whiteSpace=wrap;html=1;fontSize=15;flipV=0;flipH=0;rotation=0;direction=east;fontStyle=1" vertex="1" parent="1">
          <mxGeometry x="580.5967999999999" y="417.12574850299404" width="52.694399999999995" height="52.69461077844311" as="geometry" />
        </mxCell>
        <mxCell id="Nuf9PjGlq5Z_Ufr8rAmU-4" value="&lt;p style=&quot;line-height: 50%; font-size: 15px;&quot;&gt;&lt;font style=&quot;font-size: 15px;&quot;&gt;FT3&lt;/font&gt;&lt;/p&gt;" style="rounded=1;whiteSpace=wrap;html=1;fontSize=15;flipV=0;flipH=0;rotation=0;direction=east;fontStyle=1" vertex="1" parent="1">
          <mxGeometry x="501.55519999999996" y="417.12574850299404" width="52.694399999999995" height="52.69461077844311" as="geometry" />
        </mxCell>
        <mxCell id="Nuf9PjGlq5Z_Ufr8rAmU-5" value="&lt;p style=&quot;line-height: 50%; font-size: 15px;&quot;&gt;&lt;font style=&quot;font-size: 15px;&quot;&gt;FT4&lt;/font&gt;&lt;/p&gt;" style="rounded=1;whiteSpace=wrap;html=1;fontSize=15;flipV=0;flipH=0;rotation=0;direction=east;fontStyle=1" vertex="1" parent="1">
          <mxGeometry x="422.5136" y="417.12574850299404" width="52.694399999999995" height="52.69461077844311" as="geometry" />
        </mxCell>
        <mxCell id="Nuf9PjGlq5Z_Ufr8rAmU-21" style="edgeStyle=orthogonalEdgeStyle;rounded=0;orthogonalLoop=1;jettySize=auto;html=1;exitX=0.5;exitY=1;exitDx=0;exitDy=0;entryX=1;entryY=0.5;entryDx=0;entryDy=0;strokeWidth=2;" edge="1" parent="1" source="Nuf9PjGlq5Z_Ufr8rAmU-20">
          <mxGeometry relative="1" as="geometry">
            <mxPoint x="185.38879999999966" y="338.08383233532936" as="targetPoint" />
          </mxGeometry>
        </mxCell>
        <mxCell id="Nuf9PjGlq5Z_Ufr8rAmU-20" value="TEGs" style="rounded=1;whiteSpace=wrap;html=1;rotation=0;fontSize=30;fontStyle=1" vertex="1" parent="1">
          <mxGeometry x="132.6943999999997" y="180" width="105.38879999999999" height="105.38922155688623" as="geometry" />
        </mxCell>
        <mxCell id="Nuf9PjGlq5Z_Ufr8rAmU-13" value="" style="line;strokeWidth=2;html=1;flipV=0;flipH=0;rotation=90;" vertex="1" parent="1">
          <mxGeometry x="596.4051199999999" y="402" width="21.077759999999998" height="9" as="geometry" />
        </mxCell>
        <mxCell id="Nuf9PjGlq5Z_Ufr8rAmU-14" value="" style="line;strokeWidth=2;html=1;flipV=0;flipH=0;rotation=90;" vertex="1" parent="1">
          <mxGeometry x="517.36352" y="402" width="21.077759999999998" height="9" as="geometry" />
        </mxCell>
        <mxCell id="Nuf9PjGlq5Z_Ufr8rAmU-15" value="" style="line;strokeWidth=2;html=1;flipV=0;flipH=0;rotation=90;" vertex="1" parent="1">
          <mxGeometry x="438.32192" y="402" width="21.077759999999998" height="9" as="geometry" />
        </mxCell>
        <mxCell id="Nuf9PjGlq5Z_Ufr8rAmU-28" value="" style="line;strokeWidth=2;direction=south;html=1;flipH=0;flipV=0;rotation=90;" vertex="1" parent="1">
          <mxGeometry x="475.20799999999997" y="198.4431137724551" width="26.347199999999997" height="395.20958083832335" as="geometry" />
        </mxCell>
        <mxCell id="Nuf9PjGlq5Z_Ufr8rAmU-30" value="" style="line;strokeWidth=2;html=1;flipV=0;flipH=0;rotation=90;" vertex="1" parent="1">
          <mxGeometry x="675.4467199999999" y="401" width="21.077759999999998" height="10" as="geometry" />
        </mxCell>
        <mxCell id="Nuf9PjGlq5Z_Ufr8rAmU-35" value="" style="endArrow=classic;html=1;rounded=0;exitX=0.86;exitY=0.503;exitDx=0;exitDy=0;exitPerimeter=0;entryX=1;entryY=0.5;entryDx=0;entryDy=0;entryPerimeter=0;" edge="1" parent="1" source="Nuf9PjGlq5Z_Ufr8rAmU-28" target="Nuf9PjGlq5Z_Ufr8rAmU-28">
          <mxGeometry width="50" height="50" relative="1" as="geometry">
            <mxPoint x="448.8608" y="382.87425149700596" as="sourcePoint" />
            <mxPoint x="580.5967999999999" y="514.6107784431138" as="targetPoint" />
          </mxGeometry>
        </mxCell>
      </root>
    </mxGraphModel>
  </diagram>
</mxfile>
